<mxfile host="app.diagrams.net" agent="Mozilla/5.0 (Windows NT 10.0; Win64; x64) AppleWebKit/537.36 (KHTML, like Gecko) Chrome/131.0.0.0 Safari/537.36 Edg/131.0.0.0" version="26.1.3">
  <diagram name="第 1 页" id="-0JwgDqCHk3gPSxCEV9V">
    <mxGraphModel dx="1514" dy="863" grid="1" gridSize="10" guides="1" tooltips="1" connect="1" arrows="1" fold="1" page="1" pageScale="1" pageWidth="583" pageHeight="827" math="0" shadow="0">
      <root>
        <mxCell id="0" />
        <mxCell id="1" parent="0" />
        <mxCell id="qVasO9UJtQ6_Ss90x7UD-13" value="" style="edgeStyle=orthogonalEdgeStyle;rounded=0;orthogonalLoop=1;jettySize=auto;html=1;entryX=0.5;entryY=0;entryDx=0;entryDy=0;fontSize=16;" edge="1" parent="1" source="qVasO9UJtQ6_Ss90x7UD-1" target="qVasO9UJtQ6_Ss90x7UD-2">
          <mxGeometry relative="1" as="geometry" />
        </mxCell>
        <mxCell id="qVasO9UJtQ6_Ss90x7UD-1" value="CBS" style="rounded=0;whiteSpace=wrap;html=1;fontSize=16;" vertex="1" parent="1">
          <mxGeometry x="150" y="250" width="60" height="30" as="geometry" />
        </mxCell>
        <mxCell id="qVasO9UJtQ6_Ss90x7UD-14" style="edgeStyle=orthogonalEdgeStyle;rounded=0;orthogonalLoop=1;jettySize=auto;html=1;exitX=0.5;exitY=1;exitDx=0;exitDy=0;entryX=0.5;entryY=0;entryDx=0;entryDy=0;fontSize=16;" edge="1" parent="1" source="qVasO9UJtQ6_Ss90x7UD-2" target="qVasO9UJtQ6_Ss90x7UD-3">
          <mxGeometry relative="1" as="geometry" />
        </mxCell>
        <mxCell id="qVasO9UJtQ6_Ss90x7UD-2" value="CBS" style="rounded=0;whiteSpace=wrap;html=1;fontSize=16;" vertex="1" parent="1">
          <mxGeometry x="150" y="310" width="60" height="30" as="geometry" />
        </mxCell>
        <mxCell id="qVasO9UJtQ6_Ss90x7UD-15" style="edgeStyle=orthogonalEdgeStyle;rounded=0;orthogonalLoop=1;jettySize=auto;html=1;exitX=0.5;exitY=1;exitDx=0;exitDy=0;entryX=0.5;entryY=0;entryDx=0;entryDy=0;fontSize=16;" edge="1" parent="1" source="qVasO9UJtQ6_Ss90x7UD-3" target="qVasO9UJtQ6_Ss90x7UD-4">
          <mxGeometry relative="1" as="geometry" />
        </mxCell>
        <mxCell id="qVasO9UJtQ6_Ss90x7UD-3" value="C2F" style="rounded=0;whiteSpace=wrap;html=1;fontSize=16;" vertex="1" parent="1">
          <mxGeometry x="150" y="370" width="60" height="30" as="geometry" />
        </mxCell>
        <mxCell id="qVasO9UJtQ6_Ss90x7UD-16" style="edgeStyle=orthogonalEdgeStyle;rounded=0;orthogonalLoop=1;jettySize=auto;html=1;exitX=0.5;exitY=1;exitDx=0;exitDy=0;entryX=0.5;entryY=0;entryDx=0;entryDy=0;fontSize=16;" edge="1" parent="1" source="qVasO9UJtQ6_Ss90x7UD-4" target="qVasO9UJtQ6_Ss90x7UD-5">
          <mxGeometry relative="1" as="geometry" />
        </mxCell>
        <mxCell id="qVasO9UJtQ6_Ss90x7UD-4" value="CBS" style="rounded=0;whiteSpace=wrap;html=1;fontSize=16;" vertex="1" parent="1">
          <mxGeometry x="150" y="430" width="60" height="30" as="geometry" />
        </mxCell>
        <mxCell id="qVasO9UJtQ6_Ss90x7UD-17" style="edgeStyle=orthogonalEdgeStyle;rounded=0;orthogonalLoop=1;jettySize=auto;html=1;exitX=0.5;exitY=1;exitDx=0;exitDy=0;entryX=0.5;entryY=0;entryDx=0;entryDy=0;fontSize=16;" edge="1" parent="1" source="qVasO9UJtQ6_Ss90x7UD-5" target="qVasO9UJtQ6_Ss90x7UD-6">
          <mxGeometry relative="1" as="geometry" />
        </mxCell>
        <mxCell id="qVasO9UJtQ6_Ss90x7UD-38" style="edgeStyle=orthogonalEdgeStyle;rounded=0;orthogonalLoop=1;jettySize=auto;html=1;exitX=1;exitY=0.5;exitDx=0;exitDy=0;entryX=0;entryY=0.5;entryDx=0;entryDy=0;fontSize=16;" edge="1" parent="1" source="qVasO9UJtQ6_Ss90x7UD-5" target="qVasO9UJtQ6_Ss90x7UD-22">
          <mxGeometry relative="1" as="geometry" />
        </mxCell>
        <mxCell id="qVasO9UJtQ6_Ss90x7UD-5" value="C2F" style="rounded=0;whiteSpace=wrap;html=1;fontSize=16;" vertex="1" parent="1">
          <mxGeometry x="150" y="490" width="60" height="30" as="geometry" />
        </mxCell>
        <mxCell id="qVasO9UJtQ6_Ss90x7UD-18" style="edgeStyle=orthogonalEdgeStyle;rounded=0;orthogonalLoop=1;jettySize=auto;html=1;exitX=0.5;exitY=1;exitDx=0;exitDy=0;entryX=0.5;entryY=0;entryDx=0;entryDy=0;fontSize=16;" edge="1" parent="1" source="qVasO9UJtQ6_Ss90x7UD-6" target="qVasO9UJtQ6_Ss90x7UD-7">
          <mxGeometry relative="1" as="geometry" />
        </mxCell>
        <mxCell id="qVasO9UJtQ6_Ss90x7UD-6" value="CBS" style="rounded=0;whiteSpace=wrap;html=1;fontSize=16;" vertex="1" parent="1">
          <mxGeometry x="150" y="620" width="60" height="30" as="geometry" />
        </mxCell>
        <mxCell id="qVasO9UJtQ6_Ss90x7UD-19" style="edgeStyle=orthogonalEdgeStyle;rounded=0;orthogonalLoop=1;jettySize=auto;html=1;exitX=0.5;exitY=1;exitDx=0;exitDy=0;entryX=0.5;entryY=0;entryDx=0;entryDy=0;fontSize=16;" edge="1" parent="1" source="qVasO9UJtQ6_Ss90x7UD-7" target="qVasO9UJtQ6_Ss90x7UD-8">
          <mxGeometry relative="1" as="geometry" />
        </mxCell>
        <mxCell id="qVasO9UJtQ6_Ss90x7UD-44" style="edgeStyle=orthogonalEdgeStyle;rounded=0;orthogonalLoop=1;jettySize=auto;html=1;exitX=1;exitY=0.5;exitDx=0;exitDy=0;entryX=0;entryY=0.5;entryDx=0;entryDy=0;fontSize=16;" edge="1" parent="1" source="qVasO9UJtQ6_Ss90x7UD-7" target="qVasO9UJtQ6_Ss90x7UD-26">
          <mxGeometry relative="1" as="geometry" />
        </mxCell>
        <mxCell id="qVasO9UJtQ6_Ss90x7UD-7" value="C2F" style="rounded=0;whiteSpace=wrap;html=1;fontSize=16;" vertex="1" parent="1">
          <mxGeometry x="150" y="680" width="60" height="30" as="geometry" />
        </mxCell>
        <mxCell id="qVasO9UJtQ6_Ss90x7UD-20" style="edgeStyle=orthogonalEdgeStyle;rounded=0;orthogonalLoop=1;jettySize=auto;html=1;exitX=0.5;exitY=1;exitDx=0;exitDy=0;entryX=0.5;entryY=0;entryDx=0;entryDy=0;fontSize=16;" edge="1" parent="1" source="qVasO9UJtQ6_Ss90x7UD-8" target="qVasO9UJtQ6_Ss90x7UD-9">
          <mxGeometry relative="1" as="geometry" />
        </mxCell>
        <mxCell id="qVasO9UJtQ6_Ss90x7UD-8" value="CBS" style="rounded=0;whiteSpace=wrap;html=1;fontSize=16;" vertex="1" parent="1">
          <mxGeometry x="150" y="740" width="60" height="30" as="geometry" />
        </mxCell>
        <mxCell id="qVasO9UJtQ6_Ss90x7UD-21" style="edgeStyle=orthogonalEdgeStyle;rounded=0;orthogonalLoop=1;jettySize=auto;html=1;exitX=0.5;exitY=1;exitDx=0;exitDy=0;entryX=0.5;entryY=0;entryDx=0;entryDy=0;fontSize=16;" edge="1" parent="1" source="qVasO9UJtQ6_Ss90x7UD-9" target="qVasO9UJtQ6_Ss90x7UD-10">
          <mxGeometry relative="1" as="geometry" />
        </mxCell>
        <mxCell id="qVasO9UJtQ6_Ss90x7UD-9" value="C2F" style="rounded=0;whiteSpace=wrap;html=1;fontSize=16;" vertex="1" parent="1">
          <mxGeometry x="150" y="800" width="60" height="30" as="geometry" />
        </mxCell>
        <mxCell id="qVasO9UJtQ6_Ss90x7UD-45" style="edgeStyle=orthogonalEdgeStyle;rounded=0;orthogonalLoop=1;jettySize=auto;html=1;exitX=1;exitY=0.5;exitDx=0;exitDy=0;entryX=0;entryY=0.5;entryDx=0;entryDy=0;fontSize=16;" edge="1" parent="1" source="qVasO9UJtQ6_Ss90x7UD-10" target="qVasO9UJtQ6_Ss90x7UD-32">
          <mxGeometry relative="1" as="geometry">
            <Array as="points">
              <mxPoint x="330" y="875" />
              <mxPoint x="330" y="875" />
            </Array>
          </mxGeometry>
        </mxCell>
        <mxCell id="qVasO9UJtQ6_Ss90x7UD-58" style="edgeStyle=orthogonalEdgeStyle;rounded=0;orthogonalLoop=1;jettySize=auto;html=1;exitX=1;exitY=0.5;exitDx=0;exitDy=0;entryX=0.5;entryY=1;entryDx=0;entryDy=0;" edge="1" parent="1" source="qVasO9UJtQ6_Ss90x7UD-10" target="qVasO9UJtQ6_Ss90x7UD-27">
          <mxGeometry relative="1" as="geometry" />
        </mxCell>
        <mxCell id="qVasO9UJtQ6_Ss90x7UD-10" value="SPPF" style="rounded=0;whiteSpace=wrap;html=1;fontSize=16;" vertex="1" parent="1">
          <mxGeometry x="150" y="860" width="60" height="30" as="geometry" />
        </mxCell>
        <mxCell id="qVasO9UJtQ6_Ss90x7UD-12" value="" style="edgeStyle=orthogonalEdgeStyle;rounded=0;orthogonalLoop=1;jettySize=auto;html=1;fontSize=16;" edge="1" parent="1" source="qVasO9UJtQ6_Ss90x7UD-11">
          <mxGeometry relative="1" as="geometry">
            <mxPoint x="180" y="250" as="targetPoint" />
          </mxGeometry>
        </mxCell>
        <mxCell id="qVasO9UJtQ6_Ss90x7UD-11" value="Input" style="text;html=1;align=center;verticalAlign=middle;whiteSpace=wrap;rounded=0;fontSize=16;" vertex="1" parent="1">
          <mxGeometry x="150" y="190" width="60" height="30" as="geometry" />
        </mxCell>
        <mxCell id="qVasO9UJtQ6_Ss90x7UD-39" style="edgeStyle=orthogonalEdgeStyle;rounded=0;orthogonalLoop=1;jettySize=auto;html=1;exitX=0.5;exitY=0;exitDx=0;exitDy=0;entryX=0.5;entryY=1;entryDx=0;entryDy=0;fontSize=16;" edge="1" parent="1" source="qVasO9UJtQ6_Ss90x7UD-22" target="qVasO9UJtQ6_Ss90x7UD-23">
          <mxGeometry relative="1" as="geometry" />
        </mxCell>
        <mxCell id="qVasO9UJtQ6_Ss90x7UD-22" value="Concat" style="rounded=0;whiteSpace=wrap;html=1;fontSize=16;" vertex="1" parent="1">
          <mxGeometry x="300" y="490" width="60" height="30" as="geometry" />
        </mxCell>
        <mxCell id="qVasO9UJtQ6_Ss90x7UD-53" style="edgeStyle=orthogonalEdgeStyle;rounded=0;orthogonalLoop=1;jettySize=auto;html=1;exitX=1;exitY=0.5;exitDx=0;exitDy=0;entryX=0;entryY=0.5;entryDx=0;entryDy=0;fontSize=16;" edge="1" parent="1" source="qVasO9UJtQ6_Ss90x7UD-23" target="qVasO9UJtQ6_Ss90x7UD-35">
          <mxGeometry relative="1" as="geometry" />
        </mxCell>
        <mxCell id="qVasO9UJtQ6_Ss90x7UD-59" style="edgeStyle=orthogonalEdgeStyle;rounded=0;orthogonalLoop=1;jettySize=auto;html=1;exitX=1;exitY=0.5;exitDx=0;exitDy=0;entryX=0.5;entryY=0;entryDx=0;entryDy=0;" edge="1" parent="1" source="qVasO9UJtQ6_Ss90x7UD-23" target="qVasO9UJtQ6_Ss90x7UD-28">
          <mxGeometry relative="1" as="geometry" />
        </mxCell>
        <mxCell id="qVasO9UJtQ6_Ss90x7UD-23" value="C2F" style="rounded=0;whiteSpace=wrap;html=1;fontSize=16;" vertex="1" parent="1">
          <mxGeometry x="300" y="430" width="60" height="30" as="geometry" />
        </mxCell>
        <mxCell id="qVasO9UJtQ6_Ss90x7UD-40" style="edgeStyle=orthogonalEdgeStyle;rounded=0;orthogonalLoop=1;jettySize=auto;html=1;exitX=0.5;exitY=0;exitDx=0;exitDy=0;entryX=0.5;entryY=1;entryDx=0;entryDy=0;fontSize=16;" edge="1" parent="1" source="qVasO9UJtQ6_Ss90x7UD-24" target="qVasO9UJtQ6_Ss90x7UD-22">
          <mxGeometry relative="1" as="geometry" />
        </mxCell>
        <mxCell id="qVasO9UJtQ6_Ss90x7UD-24" value="Upsample" style="rounded=0;whiteSpace=wrap;html=1;fontSize=16;" vertex="1" parent="1">
          <mxGeometry x="290" y="554.5" width="80" height="30" as="geometry" />
        </mxCell>
        <mxCell id="qVasO9UJtQ6_Ss90x7UD-41" style="edgeStyle=orthogonalEdgeStyle;rounded=0;orthogonalLoop=1;jettySize=auto;html=1;exitX=0.5;exitY=0;exitDx=0;exitDy=0;entryX=0.5;entryY=1;entryDx=0;entryDy=0;fontSize=16;" edge="1" parent="1" source="qVasO9UJtQ6_Ss90x7UD-25" target="qVasO9UJtQ6_Ss90x7UD-24">
          <mxGeometry relative="1" as="geometry" />
        </mxCell>
        <mxCell id="qVasO9UJtQ6_Ss90x7UD-25" value="C2F" style="rounded=0;whiteSpace=wrap;html=1;fontSize=16;" vertex="1" parent="1">
          <mxGeometry x="300" y="620" width="60" height="30" as="geometry" />
        </mxCell>
        <mxCell id="qVasO9UJtQ6_Ss90x7UD-42" style="edgeStyle=orthogonalEdgeStyle;rounded=0;orthogonalLoop=1;jettySize=auto;html=1;exitX=0.5;exitY=0;exitDx=0;exitDy=0;entryX=0.5;entryY=1;entryDx=0;entryDy=0;fontSize=16;" edge="1" parent="1" source="qVasO9UJtQ6_Ss90x7UD-26" target="qVasO9UJtQ6_Ss90x7UD-25">
          <mxGeometry relative="1" as="geometry" />
        </mxCell>
        <mxCell id="qVasO9UJtQ6_Ss90x7UD-26" value="Concat" style="rounded=0;whiteSpace=wrap;html=1;fontSize=16;" vertex="1" parent="1">
          <mxGeometry x="300" y="680" width="60" height="30" as="geometry" />
        </mxCell>
        <mxCell id="qVasO9UJtQ6_Ss90x7UD-43" style="edgeStyle=orthogonalEdgeStyle;rounded=0;orthogonalLoop=1;jettySize=auto;html=1;exitX=0.5;exitY=0;exitDx=0;exitDy=0;entryX=0.5;entryY=1;entryDx=0;entryDy=0;fontSize=16;" edge="1" parent="1" source="qVasO9UJtQ6_Ss90x7UD-27" target="qVasO9UJtQ6_Ss90x7UD-26">
          <mxGeometry relative="1" as="geometry" />
        </mxCell>
        <mxCell id="qVasO9UJtQ6_Ss90x7UD-27" value="Upsample" style="rounded=0;whiteSpace=wrap;html=1;fontSize=16;" vertex="1" parent="1">
          <mxGeometry x="290" y="740" width="80" height="30" as="geometry" />
        </mxCell>
        <mxCell id="qVasO9UJtQ6_Ss90x7UD-46" style="edgeStyle=orthogonalEdgeStyle;rounded=0;orthogonalLoop=1;jettySize=auto;html=1;exitX=0.5;exitY=1;exitDx=0;exitDy=0;entryX=0.5;entryY=0;entryDx=0;entryDy=0;fontSize=16;" edge="1" parent="1" source="qVasO9UJtQ6_Ss90x7UD-28" target="qVasO9UJtQ6_Ss90x7UD-29">
          <mxGeometry relative="1" as="geometry" />
        </mxCell>
        <mxCell id="qVasO9UJtQ6_Ss90x7UD-28" value="CBS" style="rounded=0;whiteSpace=wrap;html=1;fontSize=16;" vertex="1" parent="1">
          <mxGeometry x="450" y="490" width="60" height="30" as="geometry" />
        </mxCell>
        <mxCell id="qVasO9UJtQ6_Ss90x7UD-47" style="edgeStyle=orthogonalEdgeStyle;rounded=0;orthogonalLoop=1;jettySize=auto;html=1;exitX=0.5;exitY=1;exitDx=0;exitDy=0;entryX=0.5;entryY=0;entryDx=0;entryDy=0;fontSize=16;" edge="1" parent="1" source="qVasO9UJtQ6_Ss90x7UD-29" target="qVasO9UJtQ6_Ss90x7UD-30">
          <mxGeometry relative="1" as="geometry" />
        </mxCell>
        <mxCell id="qVasO9UJtQ6_Ss90x7UD-29" value="Concat" style="rounded=0;whiteSpace=wrap;html=1;fontSize=16;" vertex="1" parent="1">
          <mxGeometry x="450" y="620" width="60" height="30" as="geometry" />
        </mxCell>
        <mxCell id="qVasO9UJtQ6_Ss90x7UD-48" style="edgeStyle=orthogonalEdgeStyle;rounded=0;orthogonalLoop=1;jettySize=auto;html=1;exitX=0.5;exitY=1;exitDx=0;exitDy=0;entryX=0.5;entryY=0;entryDx=0;entryDy=0;fontSize=16;" edge="1" parent="1" source="qVasO9UJtQ6_Ss90x7UD-30" target="qVasO9UJtQ6_Ss90x7UD-31">
          <mxGeometry relative="1" as="geometry" />
        </mxCell>
        <mxCell id="qVasO9UJtQ6_Ss90x7UD-52" style="edgeStyle=orthogonalEdgeStyle;rounded=0;orthogonalLoop=1;jettySize=auto;html=1;exitX=1;exitY=0.5;exitDx=0;exitDy=0;entryX=0;entryY=0.5;entryDx=0;entryDy=0;fontSize=16;" edge="1" parent="1" source="qVasO9UJtQ6_Ss90x7UD-30" target="qVasO9UJtQ6_Ss90x7UD-36">
          <mxGeometry relative="1" as="geometry" />
        </mxCell>
        <mxCell id="qVasO9UJtQ6_Ss90x7UD-30" value="C2F" style="rounded=0;whiteSpace=wrap;html=1;fontSize=16;" vertex="1" parent="1">
          <mxGeometry x="450" y="680" width="60" height="30" as="geometry" />
        </mxCell>
        <mxCell id="qVasO9UJtQ6_Ss90x7UD-49" style="edgeStyle=orthogonalEdgeStyle;rounded=0;orthogonalLoop=1;jettySize=auto;html=1;exitX=0.5;exitY=1;exitDx=0;exitDy=0;entryX=0.5;entryY=0;entryDx=0;entryDy=0;fontSize=16;" edge="1" parent="1" source="qVasO9UJtQ6_Ss90x7UD-31" target="qVasO9UJtQ6_Ss90x7UD-32">
          <mxGeometry relative="1" as="geometry" />
        </mxCell>
        <mxCell id="qVasO9UJtQ6_Ss90x7UD-31" value="CBS" style="rounded=0;whiteSpace=wrap;html=1;fontSize=16;" vertex="1" parent="1">
          <mxGeometry x="450" y="740" width="60" height="30" as="geometry" />
        </mxCell>
        <mxCell id="qVasO9UJtQ6_Ss90x7UD-50" style="edgeStyle=orthogonalEdgeStyle;rounded=0;orthogonalLoop=1;jettySize=auto;html=1;exitX=0.5;exitY=1;exitDx=0;exitDy=0;entryX=0.5;entryY=0;entryDx=0;entryDy=0;fontSize=16;" edge="1" parent="1" source="qVasO9UJtQ6_Ss90x7UD-32" target="qVasO9UJtQ6_Ss90x7UD-33">
          <mxGeometry relative="1" as="geometry" />
        </mxCell>
        <mxCell id="qVasO9UJtQ6_Ss90x7UD-32" value="Concat" style="rounded=0;whiteSpace=wrap;html=1;fontSize=16;" vertex="1" parent="1">
          <mxGeometry x="450" y="860" width="60" height="30" as="geometry" />
        </mxCell>
        <mxCell id="qVasO9UJtQ6_Ss90x7UD-51" style="edgeStyle=orthogonalEdgeStyle;rounded=0;orthogonalLoop=1;jettySize=auto;html=1;exitX=1;exitY=0.5;exitDx=0;exitDy=0;entryX=0;entryY=0.5;entryDx=0;entryDy=0;fontSize=16;" edge="1" parent="1" source="qVasO9UJtQ6_Ss90x7UD-33" target="qVasO9UJtQ6_Ss90x7UD-37">
          <mxGeometry relative="1" as="geometry" />
        </mxCell>
        <mxCell id="qVasO9UJtQ6_Ss90x7UD-33" value="C2F" style="rounded=0;whiteSpace=wrap;html=1;fontSize=16;" vertex="1" parent="1">
          <mxGeometry x="450" y="920" width="60" height="30" as="geometry" />
        </mxCell>
        <mxCell id="qVasO9UJtQ6_Ss90x7UD-35" value="Detect" style="rounded=0;whiteSpace=wrap;html=1;fontSize=16;" vertex="1" parent="1">
          <mxGeometry x="620" y="430" width="60" height="30" as="geometry" />
        </mxCell>
        <mxCell id="qVasO9UJtQ6_Ss90x7UD-36" value="Detect" style="rounded=0;whiteSpace=wrap;html=1;fontSize=16;" vertex="1" parent="1">
          <mxGeometry x="620" y="680" width="60" height="30" as="geometry" />
        </mxCell>
        <mxCell id="qVasO9UJtQ6_Ss90x7UD-37" value="Detect" style="rounded=0;whiteSpace=wrap;html=1;fontSize=16;" vertex="1" parent="1">
          <mxGeometry x="620" y="920" width="60" height="30" as="geometry" />
        </mxCell>
        <mxCell id="qVasO9UJtQ6_Ss90x7UD-61" value="" style="swimlane;startSize=0;dashed=1;" vertex="1" parent="1">
          <mxGeometry x="130" y="190" width="100" height="800" as="geometry" />
        </mxCell>
        <mxCell id="qVasO9UJtQ6_Ss90x7UD-62" value="&lt;font style=&quot;font-size: 16px;&quot;&gt;Backbone&lt;/font&gt;" style="text;html=1;align=center;verticalAlign=middle;whiteSpace=wrap;rounded=0;" vertex="1" parent="1">
          <mxGeometry x="150" y="160" width="60" height="30" as="geometry" />
        </mxCell>
        <mxCell id="qVasO9UJtQ6_Ss90x7UD-63" value="" style="swimlane;startSize=0;dashed=1;" vertex="1" parent="1">
          <mxGeometry x="270" y="380" width="260" height="610" as="geometry" />
        </mxCell>
        <mxCell id="qVasO9UJtQ6_Ss90x7UD-64" value="&lt;font style=&quot;font-size: 16px;&quot;&gt;Neck&lt;/font&gt;" style="text;html=1;align=center;verticalAlign=middle;whiteSpace=wrap;rounded=0;" vertex="1" parent="1">
          <mxGeometry x="370" y="320" width="60" height="30" as="geometry" />
        </mxCell>
        <mxCell id="qVasO9UJtQ6_Ss90x7UD-65" value="&lt;font style=&quot;font-size: 16px;&quot;&gt;(Feature Combination)&lt;/font&gt;" style="text;html=1;align=center;verticalAlign=middle;whiteSpace=wrap;rounded=0;" vertex="1" parent="1">
          <mxGeometry x="317.5" y="350" width="165" height="30" as="geometry" />
        </mxCell>
        <mxCell id="qVasO9UJtQ6_Ss90x7UD-66" value="" style="swimlane;startSize=0;dashed=1;" vertex="1" parent="1">
          <mxGeometry x="570" y="380" width="150" height="610" as="geometry" />
        </mxCell>
        <mxCell id="qVasO9UJtQ6_Ss90x7UD-67" value="&lt;font style=&quot;font-size: 16px;&quot;&gt;Head&lt;/font&gt;" style="text;html=1;align=center;verticalAlign=middle;whiteSpace=wrap;rounded=0;" vertex="1" parent="1">
          <mxGeometry x="615" y="320" width="60" height="30" as="geometry" />
        </mxCell>
        <mxCell id="qVasO9UJtQ6_Ss90x7UD-68" value="&lt;font style=&quot;font-size: 16px;&quot;&gt;(Prediction)&lt;/font&gt;" style="text;html=1;align=center;verticalAlign=middle;whiteSpace=wrap;rounded=0;" vertex="1" parent="1">
          <mxGeometry x="562.5" y="350" width="165" height="30" as="geometry" />
        </mxCell>
        <mxCell id="qVasO9UJtQ6_Ss90x7UD-69" value="CBS" style="rounded=0;whiteSpace=wrap;html=1;fontSize=16;" vertex="1" parent="1">
          <mxGeometry x="790" y="380" width="60" height="30" as="geometry" />
        </mxCell>
        <mxCell id="qVasO9UJtQ6_Ss90x7UD-70" value="Conv" style="rounded=0;whiteSpace=wrap;html=1;fontSize=16;" vertex="1" parent="1">
          <mxGeometry x="910" y="380" width="60" height="30" as="geometry" />
        </mxCell>
        <mxCell id="qVasO9UJtQ6_Ss90x7UD-71" value="BN" style="rounded=0;whiteSpace=wrap;html=1;fontSize=16;" vertex="1" parent="1">
          <mxGeometry x="970" y="380" width="60" height="30" as="geometry" />
        </mxCell>
        <mxCell id="qVasO9UJtQ6_Ss90x7UD-72" value="SiLU" style="rounded=0;whiteSpace=wrap;html=1;fontSize=16;" vertex="1" parent="1">
          <mxGeometry x="1030" y="380" width="60" height="30" as="geometry" />
        </mxCell>
        <mxCell id="qVasO9UJtQ6_Ss90x7UD-73" value="&lt;font style=&quot;font-size: 18px;&quot;&gt;=&lt;/font&gt;" style="text;html=1;align=center;verticalAlign=middle;whiteSpace=wrap;rounded=0;" vertex="1" parent="1">
          <mxGeometry x="850" y="380" width="60" height="30" as="geometry" />
        </mxCell>
        <mxCell id="qVasO9UJtQ6_Ss90x7UD-74" value="SPPF" style="rounded=0;whiteSpace=wrap;html=1;fontSize=16;" vertex="1" parent="1">
          <mxGeometry x="790" y="524.5" width="60" height="30" as="geometry" />
        </mxCell>
        <mxCell id="qVasO9UJtQ6_Ss90x7UD-77" style="edgeStyle=orthogonalEdgeStyle;rounded=0;orthogonalLoop=1;jettySize=auto;html=1;exitX=1;exitY=0.5;exitDx=0;exitDy=0;entryX=0;entryY=0.5;entryDx=0;entryDy=0;" edge="1" parent="1" source="qVasO9UJtQ6_Ss90x7UD-75" target="qVasO9UJtQ6_Ss90x7UD-76">
          <mxGeometry relative="1" as="geometry" />
        </mxCell>
        <mxCell id="qVasO9UJtQ6_Ss90x7UD-75" value="&lt;font style=&quot;font-size: 18px;&quot;&gt;=&lt;/font&gt;" style="text;html=1;align=center;verticalAlign=middle;whiteSpace=wrap;rounded=0;" vertex="1" parent="1">
          <mxGeometry x="865" y="524.5" width="30" height="30" as="geometry" />
        </mxCell>
        <mxCell id="qVasO9UJtQ6_Ss90x7UD-86" style="edgeStyle=orthogonalEdgeStyle;rounded=0;orthogonalLoop=1;jettySize=auto;html=1;exitX=0.5;exitY=1;exitDx=0;exitDy=0;entryX=0.5;entryY=0;entryDx=0;entryDy=0;" edge="1" parent="1" source="qVasO9UJtQ6_Ss90x7UD-76" target="qVasO9UJtQ6_Ss90x7UD-78">
          <mxGeometry relative="1" as="geometry" />
        </mxCell>
        <mxCell id="qVasO9UJtQ6_Ss90x7UD-91" style="edgeStyle=orthogonalEdgeStyle;rounded=0;orthogonalLoop=1;jettySize=auto;html=1;exitX=1;exitY=0.5;exitDx=0;exitDy=0;entryX=1;entryY=0.5;entryDx=0;entryDy=0;" edge="1" parent="1" source="qVasO9UJtQ6_Ss90x7UD-76" target="qVasO9UJtQ6_Ss90x7UD-81">
          <mxGeometry relative="1" as="geometry">
            <Array as="points">
              <mxPoint x="1090" y="540" />
              <mxPoint x="1090" y="775" />
            </Array>
          </mxGeometry>
        </mxCell>
        <mxCell id="qVasO9UJtQ6_Ss90x7UD-76" value="CBS" style="rounded=0;whiteSpace=wrap;html=1;fontSize=16;" vertex="1" parent="1">
          <mxGeometry x="920" y="524.5" width="60" height="30" as="geometry" />
        </mxCell>
        <mxCell id="qVasO9UJtQ6_Ss90x7UD-87" style="edgeStyle=orthogonalEdgeStyle;rounded=0;orthogonalLoop=1;jettySize=auto;html=1;exitX=0.5;exitY=1;exitDx=0;exitDy=0;entryX=0.5;entryY=0;entryDx=0;entryDy=0;" edge="1" parent="1" source="qVasO9UJtQ6_Ss90x7UD-78" target="qVasO9UJtQ6_Ss90x7UD-79">
          <mxGeometry relative="1" as="geometry" />
        </mxCell>
        <mxCell id="qVasO9UJtQ6_Ss90x7UD-90" style="edgeStyle=orthogonalEdgeStyle;rounded=0;orthogonalLoop=1;jettySize=auto;html=1;exitX=1;exitY=0.5;exitDx=0;exitDy=0;entryX=1;entryY=0.5;entryDx=0;entryDy=0;" edge="1" parent="1" source="qVasO9UJtQ6_Ss90x7UD-78" target="qVasO9UJtQ6_Ss90x7UD-81">
          <mxGeometry relative="1" as="geometry">
            <Array as="points">
              <mxPoint x="1060" y="600" />
              <mxPoint x="1060" y="775" />
            </Array>
          </mxGeometry>
        </mxCell>
        <mxCell id="qVasO9UJtQ6_Ss90x7UD-78" value="MaxPool2d" style="rounded=0;whiteSpace=wrap;html=1;fontSize=16;" vertex="1" parent="1">
          <mxGeometry x="905" y="584.5" width="90" height="30" as="geometry" />
        </mxCell>
        <mxCell id="qVasO9UJtQ6_Ss90x7UD-84" value="" style="edgeStyle=orthogonalEdgeStyle;rounded=0;orthogonalLoop=1;jettySize=auto;html=1;" edge="1" parent="1" source="qVasO9UJtQ6_Ss90x7UD-79" target="qVasO9UJtQ6_Ss90x7UD-81">
          <mxGeometry relative="1" as="geometry" />
        </mxCell>
        <mxCell id="qVasO9UJtQ6_Ss90x7UD-92" style="edgeStyle=orthogonalEdgeStyle;rounded=0;orthogonalLoop=1;jettySize=auto;html=1;exitX=1;exitY=0.5;exitDx=0;exitDy=0;entryX=1;entryY=0.5;entryDx=0;entryDy=0;" edge="1" parent="1" source="qVasO9UJtQ6_Ss90x7UD-79" target="qVasO9UJtQ6_Ss90x7UD-81">
          <mxGeometry relative="1" as="geometry">
            <Array as="points">
              <mxPoint x="1030" y="655" />
              <mxPoint x="1030" y="775" />
            </Array>
          </mxGeometry>
        </mxCell>
        <mxCell id="qVasO9UJtQ6_Ss90x7UD-79" value="MaxPool2d" style="rounded=0;whiteSpace=wrap;html=1;fontSize=16;" vertex="1" parent="1">
          <mxGeometry x="905" y="640" width="90" height="30" as="geometry" />
        </mxCell>
        <mxCell id="qVasO9UJtQ6_Ss90x7UD-80" value="MaxPool2d" style="rounded=0;whiteSpace=wrap;html=1;fontSize=16;" vertex="1" parent="1">
          <mxGeometry x="905" y="700" width="90" height="30" as="geometry" />
        </mxCell>
        <mxCell id="qVasO9UJtQ6_Ss90x7UD-88" style="edgeStyle=orthogonalEdgeStyle;rounded=0;orthogonalLoop=1;jettySize=auto;html=1;exitX=0.5;exitY=1;exitDx=0;exitDy=0;entryX=0.5;entryY=0;entryDx=0;entryDy=0;" edge="1" parent="1" source="qVasO9UJtQ6_Ss90x7UD-81" target="qVasO9UJtQ6_Ss90x7UD-85">
          <mxGeometry relative="1" as="geometry" />
        </mxCell>
        <mxCell id="qVasO9UJtQ6_Ss90x7UD-81" value="Concat" style="rounded=0;whiteSpace=wrap;html=1;fontSize=16;" vertex="1" parent="1">
          <mxGeometry x="920" y="760" width="60" height="30" as="geometry" />
        </mxCell>
        <mxCell id="qVasO9UJtQ6_Ss90x7UD-85" value="CBS" style="rounded=0;whiteSpace=wrap;html=1;fontSize=16;" vertex="1" parent="1">
          <mxGeometry x="920" y="820" width="60" height="30" as="geometry" />
        </mxCell>
      </root>
    </mxGraphModel>
  </diagram>
</mxfile>
